<svg width="252" height="54" viewBox="0 0 252 54" fill="none" xmlns="http://www.w3.org/2000/svg">
<g id="logo-webdesign 1" clip-path="url(#clip0_316_44)">
<path id="Vector" d="M113.603 0H0V54H113.603V0Z" fill="#CDE2B3"/>
<g id="Group">
<path id="Vector_2" d="M59.069 12.1985C58.3997 12.097 57.7304 11.9448 57.0511 11.7317C56.3818 11.5186 55.6725 11.2649 54.9433 10.9807V9.57007H65.6822V10.9807C64.5933 11.4678 63.4445 11.8738 62.2258 12.1985L54.2141 43.6689L51.2371 44.2575L43.5151 17.7599L35.9429 43.6791L33.0159 44.2677L24.5247 12.2188C23.8853 12.0564 23.266 11.8738 22.6566 11.6809C22.0472 11.4881 21.4579 11.2547 20.8784 11.001V9.59036H33.3456V11.001C32.7362 11.2243 32.1169 11.4475 31.4775 11.6607C30.8382 11.8738 30.1489 12.0564 29.4196 12.2188L34.1647 31.846L35.2236 38.1786H35.3235L37.0018 31.7445L43.4751 9.58022H45.1035L52.0563 31.7445L53.4448 38.0771H53.5447L54.6436 31.643L59.0591 12.2087L59.069 12.1985Z" fill="#1D1D1B"/>
<path id="Vector_3" d="M83.9534 40.259C83.6936 40.807 83.294 41.3348 82.7546 41.8219C82.2152 42.309 81.5858 42.7353 80.8865 43.0905C80.1873 43.4457 79.418 43.7298 78.5889 43.9429C77.7598 44.156 76.9106 44.2575 76.0515 44.2575C74.1635 44.2575 72.5052 43.9531 71.0667 43.3543C69.6282 42.7556 68.4294 41.8929 67.4704 40.7766C66.5114 39.6603 65.7821 38.3207 65.2926 36.7578C64.7931 35.1949 64.5534 33.4494 64.5534 31.5009C64.5534 27.34 65.4924 24.1737 67.3805 22.0019C69.2685 19.8302 71.9358 18.7341 75.3922 18.7341C76.5111 18.7341 77.6099 18.8864 78.6988 19.201C79.7877 19.5054 80.7567 20.023 81.5958 20.7334C82.4449 21.4438 83.1342 22.3977 83.6537 23.5851C84.1831 24.7725 84.4429 26.244 84.4429 27.9895C84.4429 28.5376 84.4229 29.1059 84.3729 29.6742C84.323 30.2425 84.2331 30.8514 84.1132 31.5009H69.1486C69.1486 32.8608 69.3185 34.1395 69.6481 35.3269C69.9878 36.5142 70.4873 37.5392 71.1566 38.4222C71.8259 39.2949 72.675 39.985 73.694 40.4924C74.7129 40.9999 75.9117 41.2434 77.2902 41.2434C78.4091 41.2434 79.5479 41.0811 80.6967 40.7563C81.8455 40.4316 82.7147 40.0053 83.2841 39.4877L83.9534 40.2692V40.259ZM75.1824 20.8755C73.3643 20.8755 71.9657 21.5047 71.0067 22.7529C70.0477 24.0012 69.4683 26.2034 69.2785 29.3494H79.8276C79.8576 29.0551 79.8876 28.771 79.8976 28.497C79.9175 28.2229 79.9175 27.9489 79.9175 27.6952C79.9175 25.6148 79.5379 23.9606 78.7687 22.7225C77.9995 21.4844 76.8008 20.8755 75.1724 20.8755H75.1824Z" fill="#1D1D1B"/>
<path id="Vector_4" d="M90.3767 10.453L86.7305 10.0673V8.79878C87.7195 8.37254 88.8283 8.03764 90.0671 7.77378C91.2958 7.50992 92.4446 7.26636 93.4935 7.04309H94.6923V24.1433H94.7922C95.3316 22.4891 96.2507 21.1698 97.5493 20.1955C98.848 19.2213 100.277 18.7341 101.845 18.7341C104.752 18.7341 106.98 19.7388 108.538 21.7584C110.086 23.7678 110.866 26.8732 110.866 31.0645C110.866 35.2558 109.807 38.5947 107.679 40.807C105.551 43.0194 102.494 44.1154 98.4984 44.1154C97.6992 44.1154 96.9 44.0546 96.1008 43.9429C95.3017 43.8313 94.5325 43.6892 93.8032 43.5268C93.064 43.3645 92.4046 43.1716 91.8153 42.9382C91.2259 42.715 90.7563 42.4815 90.3967 42.2583V10.453H90.3767ZM100.546 21.7584C99.0078 21.7584 97.7691 22.2861 96.8101 23.3415C95.8511 24.397 95.1518 25.7366 94.7023 27.3603V40.9491C95.2817 41.2739 95.981 41.5276 96.8101 41.7001C97.6392 41.8828 98.5183 41.964 99.4474 41.964C101.555 41.964 103.223 41.0303 104.432 39.163C105.651 37.2957 106.25 34.5962 106.25 31.0544C106.25 29.7858 106.15 28.5883 105.941 27.4517C105.731 26.315 105.401 25.3205 104.932 24.4782C104.472 23.6358 103.873 22.966 103.154 22.4789C102.434 21.9918 101.565 21.7482 100.536 21.7482L100.546 21.7584Z" fill="#1D1D1B"/>
<path id="Vector_5" d="M130.705 38.8484C130.545 39.5588 130.276 40.2489 129.886 40.8984C129.506 41.5479 129.027 42.1263 128.467 42.6236C127.908 43.131 127.269 43.5268 126.549 43.8211C125.83 44.1154 125.051 44.2575 124.222 44.2575C121.055 44.2575 118.688 43.2325 117.129 41.1927C115.561 39.1427 114.782 35.9662 114.782 31.643C114.782 27.3197 115.781 24.3158 117.778 22.144C119.776 19.9722 122.474 18.8762 125.86 18.8762C127.039 18.8762 127.968 18.9371 128.637 19.0487C129.307 19.1604 130.046 19.3633 130.845 19.6576V10.453L127.199 10.0673V8.79878C128.128 8.41313 129.207 8.06809 130.435 7.77378C131.664 7.47947 132.843 7.23591 133.962 7.04309H135.161V40.8984L138.327 41.284V42.309C137.398 42.7657 136.439 43.1513 135.45 43.4761C134.461 43.8008 133.482 44.0241 132.523 44.156H131.325L130.895 38.8484H130.705ZM125.191 41.2333C126.759 41.2333 128.008 40.7259 128.927 39.7212C129.856 38.7165 130.495 37.3464 130.845 35.6313V21.8903C130.306 21.5655 129.666 21.3423 128.927 21.2104C128.188 21.0784 127.249 21.0175 126.1 21.0175C123.922 21.0175 122.264 21.9816 121.115 23.92C119.966 25.8482 119.387 28.4259 119.387 31.643C119.387 32.9724 119.497 34.2207 119.726 35.3675C119.946 36.5244 120.306 37.5392 120.785 38.412C121.265 39.2848 121.864 39.9749 122.584 40.4823C123.303 40.9897 124.172 41.2333 125.201 41.2333H125.191Z" fill="#1D1D1B"/>
<path id="Vector_6" d="M160.814 40.259C160.554 40.807 160.155 41.3348 159.615 41.8219C159.076 42.309 158.447 42.7353 157.747 43.0905C157.048 43.4457 156.279 43.7298 155.45 43.9429C154.62 44.156 153.771 44.2575 152.912 44.2575C151.024 44.2575 149.366 43.9531 147.927 43.3543C146.489 42.7556 145.29 41.8929 144.331 40.7766C143.372 39.6603 142.643 38.3207 142.153 36.7578C141.654 35.1949 141.414 33.4494 141.414 31.5009C141.414 27.34 142.353 24.1737 144.241 22.0019C146.129 19.8302 148.796 18.7341 152.253 18.7341C153.372 18.7341 154.471 18.8864 155.56 19.201C156.648 19.5054 157.617 20.023 158.457 20.7334C159.306 21.4438 159.995 22.3977 160.514 23.5851C161.044 24.7725 161.304 26.244 161.304 27.9895C161.304 28.5376 161.284 29.1059 161.234 29.6742C161.184 30.2425 161.094 30.8514 160.974 31.5009H146.009C146.009 32.8608 146.179 34.1395 146.509 35.3269C146.848 36.5142 147.348 37.5392 148.017 38.4222C148.687 39.2949 149.536 39.985 150.555 40.4924C151.574 40.9999 152.772 41.2434 154.151 41.2434C155.27 41.2434 156.409 41.0811 157.557 40.7563C158.706 40.4316 159.575 40.0053 160.145 39.4877L160.814 40.2692V40.259ZM152.043 20.8755C150.225 20.8755 148.826 21.5047 147.867 22.7529C146.908 24.0012 146.329 26.2034 146.139 29.3494H156.688C156.718 29.0551 156.748 28.771 156.758 28.497C156.778 28.2229 156.778 27.9489 156.778 27.6952C156.778 25.6148 156.399 23.9606 155.629 22.7225C154.86 21.4844 153.661 20.8755 152.033 20.8755H152.043Z" fill="#1D1D1B"/>
<path id="Vector_7" d="M177.697 38.1177C177.697 37.2044 177.417 36.4331 176.858 35.8039C176.298 35.1747 175.589 34.5759 174.72 34.0279C173.861 33.4799 172.942 32.942 171.963 32.4244C170.984 31.9069 170.065 31.2979 169.205 30.5977C168.346 29.8975 167.627 29.0957 167.068 28.1824C166.508 27.269 166.228 26.1527 166.228 24.8232C166.228 23.9505 166.428 23.1386 166.828 22.3876C167.227 21.6366 167.767 20.9973 168.436 20.4594C169.106 19.9215 169.895 19.5054 170.784 19.1908C171.683 18.8864 172.642 18.724 173.661 18.724C175.389 18.724 176.798 18.8255 177.906 19.0183C179.015 19.2111 180.074 19.4851 181.093 19.8505C180.963 20.8856 180.813 21.9411 180.634 22.9965C180.454 24.0519 180.214 25.1277 179.894 26.2339H178.696L176.878 21.2611C176.498 21.0987 176.058 20.9973 175.579 20.9465C175.099 20.8958 174.6 20.8755 174.09 20.8755C173.511 20.8755 173.011 20.977 172.582 21.1901C172.152 21.4032 171.783 21.6671 171.483 21.9918C171.183 22.3166 170.944 22.692 170.784 23.1081C170.624 23.5344 170.544 23.9505 170.544 24.3767C170.544 25.2495 170.824 26.0106 171.383 26.6398C171.943 27.269 172.652 27.8576 173.521 28.3955C174.38 28.9334 175.299 29.4611 176.278 29.9787C177.257 30.4962 178.176 31.0848 179.035 31.7343C179.894 32.3838 180.614 33.1348 181.173 33.9974C181.732 34.8601 182.012 35.8851 182.012 37.0927C182.012 38.1989 181.782 39.1833 181.313 40.0662C180.853 40.939 180.214 41.69 179.395 42.309C178.576 42.9281 177.637 43.4051 176.568 43.7501C175.499 44.0952 174.35 44.2575 173.141 44.2575C171.763 44.2575 170.504 44.1358 169.355 43.8922C168.206 43.6486 167.008 43.3036 165.759 42.8469C165.819 41.6798 165.969 40.5534 166.189 39.4573C166.408 38.3714 166.698 37.3261 167.048 36.3113H168.246L170.354 41.6189C170.704 41.8828 171.133 42.0249 171.623 42.0553C172.122 42.0858 172.572 42.1061 172.992 42.1061C174.4 42.1061 175.529 41.7204 176.398 40.939C177.257 40.1576 177.697 39.2138 177.697 38.1177Z" fill="#1D1D1B"/>
<path id="Vector_8" d="M196.927 43.6689H186.278V42.4511C186.757 42.1872 187.257 41.9741 187.766 41.7915C188.276 41.6088 188.835 41.4464 189.445 41.284V22.144L186.278 21.7584V20.4898C187.207 20.1042 188.216 19.7591 189.295 19.4648C190.384 19.1705 191.472 18.9269 192.551 18.7341H193.75V41.284C194.389 41.4464 194.969 41.6189 195.478 41.7915C195.988 41.9741 196.467 42.1872 196.917 42.4511V43.6689H196.927ZM188.535 11.0314C188.535 10.1587 188.815 9.45843 189.375 8.94086C189.934 8.42328 190.673 8.15942 191.602 8.15942C192.531 8.15942 193.261 8.42328 193.81 8.94086C194.349 9.45843 194.629 10.1587 194.629 11.0314C194.629 11.9042 194.359 12.5943 193.81 13.1017C193.271 13.6092 192.531 13.8527 191.602 13.8527C190.673 13.8527 189.934 13.599 189.375 13.1017C188.815 12.5943 188.535 11.9042 188.535 11.0314Z" fill="#1D1D1B"/>
<path id="Vector_9" d="M210.593 18.7341C212.321 18.7341 213.769 18.9066 214.958 19.2415C216.137 19.5866 217.136 20.1143 217.935 20.8247C219.823 19.5257 221.791 18.5819 223.829 18.0034C224.089 18.3586 224.269 18.795 224.379 19.3227C224.488 19.8403 224.548 20.3274 224.548 20.7841L223.929 21.9512H218.894C219.693 23.1182 220.093 24.6608 220.093 26.5789C220.093 28.913 219.284 30.8209 217.675 32.2823C216.057 33.7437 213.7 34.4744 210.603 34.4744C209.993 34.4744 209.504 34.4541 209.114 34.4236C208.735 34.3932 208.295 34.3425 207.816 34.2816C207.656 34.5759 207.476 34.9006 207.266 35.2558C207.056 35.611 206.956 35.9865 206.956 36.3721C206.956 37.0217 207.326 37.5291 208.055 37.9046C208.795 38.2801 209.714 38.615 210.812 38.8991C211.911 39.1833 213.11 39.4877 214.409 39.8023C215.707 40.1068 216.906 40.533 218.025 41.0709C219.144 41.6088 220.083 42.309 220.832 43.1615C221.581 44.0241 221.971 45.1303 222.011 46.5003C222.041 47.6674 221.781 48.7228 221.222 49.6666C220.662 50.6104 219.883 51.3919 218.894 52.0312C217.905 52.6604 216.716 53.1476 215.318 53.4926C213.919 53.8377 212.401 54 210.743 54C207.256 54 204.629 53.4013 202.851 52.1936C201.073 50.9961 200.193 49.484 200.193 47.6674C200.193 46.7946 200.333 46.0233 200.603 45.3738C200.873 44.7243 201.262 44.156 201.782 43.6689C202.291 43.1818 202.931 42.7555 203.7 42.38C204.469 42.0045 205.348 41.6595 206.337 41.3347C205.638 41.01 205.048 40.5635 204.589 39.9952C204.129 39.4268 203.89 38.7367 203.89 37.9249C203.89 37.1739 204.199 36.4432 204.829 35.7125C205.448 34.9818 206.087 34.4033 206.727 33.9873C204.909 33.5001 203.51 32.5766 202.531 31.2066C201.552 29.8467 201.073 28.3041 201.073 26.5789C201.073 25.4727 201.282 24.4477 201.692 23.4836C202.111 22.5296 202.711 21.6873 203.51 20.9769C204.309 20.2665 205.298 19.7084 206.487 19.3227C207.666 18.9371 209.044 18.7341 210.613 18.7341H210.593ZM217.685 47.6166C217.685 46.5815 217.346 45.7493 216.656 45.1303C215.967 44.5112 215.118 44.0139 214.089 43.6182C213.07 43.2325 211.961 42.9078 210.783 42.6439C209.604 42.38 208.495 42.0959 207.476 41.7711C206.257 42.5221 205.458 43.3036 205.078 44.1357C204.699 44.9679 204.499 45.8204 204.499 46.6931C204.499 48.4184 205.108 49.7072 206.317 50.5699C207.536 51.4325 209.294 51.8587 211.592 51.8587C212.77 51.8587 213.759 51.7471 214.539 51.5137C215.318 51.2904 215.947 50.9859 216.407 50.6104C216.866 50.235 217.196 49.7884 217.386 49.2709C217.576 48.7533 217.675 48.1951 217.675 47.6166H217.685ZM205.358 26.5687C205.358 27.3502 205.448 28.091 205.618 28.7811C205.798 29.4813 206.077 30.0902 206.477 30.6078C206.877 31.1254 207.416 31.5415 208.085 31.8459C208.755 32.1504 209.584 32.3128 210.583 32.3128C212.441 32.3128 213.759 31.7647 214.559 30.6586C215.358 29.5524 215.757 28.1925 215.757 26.5687C215.757 24.813 215.368 23.4227 214.579 22.4079C213.799 21.3829 212.461 20.8754 210.573 20.8754C208.685 20.8754 207.266 21.3727 206.497 22.3571C205.728 23.3517 205.348 24.7522 205.348 26.5687H205.358Z" fill="#1D1D1B"/>
<path id="Vector_10" d="M251.63 43.6689H241.321V42.4511C242.18 41.9944 243.129 41.6088 244.148 41.284V29.7351C244.148 27.269 243.798 25.3205 243.089 23.8896C242.39 22.4586 241.111 21.7482 239.253 21.7482C238.454 21.7482 237.715 21.8903 237.025 22.1846C236.336 22.4789 235.727 22.8747 235.207 23.3821C234.678 23.8896 234.228 24.4579 233.839 25.0871C233.459 25.7163 233.149 26.3759 232.93 27.0559V41.284C233.919 41.4768 234.878 41.8726 235.807 42.4511V43.6689H225.447V42.4511C226.247 42.0249 227.305 41.6392 228.614 41.284V22.144L225.447 21.7584V20.4898C226.277 20.1346 227.236 19.8099 228.324 19.5156C229.413 19.2213 230.542 18.9675 231.731 18.7341H232.93V24.194H232.98C233.649 22.7022 234.618 21.4133 235.877 20.3477C237.135 19.272 238.664 18.7443 240.452 18.7443C241.731 18.7443 242.869 18.8965 243.878 19.2111C244.887 19.5156 245.726 20.0636 246.396 20.845C247.065 21.6264 247.575 22.6717 247.934 23.991C248.284 25.3103 248.464 26.9747 248.464 28.9841V41.3043C249.742 41.5276 250.801 41.9234 251.63 42.4714V43.6892V43.6689Z" fill="#1D1D1B"/>
</g>
</g>
<defs>
<clipPath id="clip0_316_44">
<rect width="252" height="54" fill="white"/>
</clipPath>
</defs>
</svg>
